<svg xmlns="http://www.w3.org/2000/svg" width="224" height="245" fill="none" viewBox="0 0 224 245"><g clip-path="url(#clip0_34_2544)"><path fill="#172B4D" d="M165.09 211.065L264.879 245.001H121.704L103.348 242.998L94.4486 237.435L124.819 211.065H165.09Z"/><path fill="#fff" stroke="#36B37E" stroke-miterlimit="10" stroke-width="1.358" d="M151.963 148.758V143.418C151.963 143.418 140.282 120.275 138.614 120.052C136.945 119.83 1.22351 63.3086 1.22351 63.3086L52.9533 164.001L73.4228 185.809L151.963 148.758Z"/><mask id="mask0_34_2544" style="mask-type:alpha" width="154" height="126" x="0" y="62" maskUnits="userSpaceOnUse"><path fill="#fff" stroke="#36B37E" stroke-miterlimit="10" stroke-width="1.358" d="M152.378 149.363V144.022C152.378 144.022 140.697 120.879 139.028 120.657C137.36 120.434 1.63831 63.9131 1.63831 63.9131L53.3681 164.606L73.8376 186.413L152.378 149.363Z"/></mask><g mask="url(#mask0_34_2544)"><path fill="#C5E9DA" d="M95.3384 122.611L78.3176 123.168L70.5303 109.371L54.177 110.15L61.8531 123.613L45.611 124.169L53.1758 137.854L69.5291 137.52L86.4386 137.075L94.6709 151.317L112.137 151.206L120.814 165.892H139.17L130.159 150.983L121.37 136.297L103.682 136.742L95.3384 122.611Z"/><path fill="#36B37E" d="M87.2173 108.703L79.2075 95.1289L62.743 96.019L70.5303 109.371L87.2173 108.703Z"/><path fill="#36B37E" d="M112.804 121.944L104.349 107.925L87.2174 108.704L95.3384 122.611L112.804 121.944Z"/><path fill="#36B37E" d="M121.926 107.145L113.36 93.2373L96.117 94.1274L104.349 107.924L121.926 107.145Z"/><path fill="#36B37E" d="M130.715 121.387L112.804 121.943L121.37 136.296L139.614 135.962L158.304 135.517L149.07 120.83L140.059 106.366L121.926 107.145L130.715 121.387Z"/><path fill="#172B4D" d="M38.2686 110.817L54.1769 110.15L46.7234 96.7984L62.7429 96.0195L55.1781 82.7793L39.3811 83.7807L23.9177 84.782L31.0375 97.6885L15.6855 98.4673L0.778381 99.2461L7.56443 112.153L22.694 111.485L29.8138 124.725L45.6109 124.169L38.2686 110.817Z"/><path fill="#36B37E" d="M14.4616 125.17L21.4702 138.521L37.156 138.187L29.8137 124.725L14.4616 125.17Z"/><path fill="#36B37E" d="M2.11331 73.2103L8.78813 85.7829L23.9177 84.7816L16.9092 72.0977L2.11331 73.2103Z"/><path fill="#36B37E" d="M79.2077 95.1292L96.1172 94.1278L87.9962 80.665L80.0976 67.4248L63.7443 68.6487L47.7248 69.8726L55.1783 82.779L71.4204 81.7777L79.2077 95.1292Z"/><path fill="#36B37E" d="M122.483 78.4395L105.017 79.5521L113.36 93.2374L131.16 92.3473L122.483 78.4395Z"/><path fill="#36B37E" d="M158.527 105.588L149.404 91.3467L131.16 92.348L140.06 106.367L158.527 105.588Z"/><path fill="#36B37E" d="M37.1562 138.187L44.6097 151.984L60.8518 151.761L53.1758 137.854L37.1562 138.187Z"/></g><path fill="#172B4D" d="M121.704 145.197L59.4058 158.549L57.8484 162.665L71.7542 181.691L121.704 145.197Z"/><path fill="#fff" stroke="#36B37E" stroke-miterlimit="10" stroke-width="1.358" d="M157.303 149.426L218.489 0.222656L179.107 160.774L174.88 162.221L157.303 149.426Z"/><path fill="#36B37E" d="M179.441 159.328L161.197 139.857L157.303 149.426L174.88 162.221L179.107 160.775L179.441 159.328Z"/><path fill="#fff" stroke="#36B37E" stroke-miterlimit="10" stroke-width="1.358" d="M174.88 162.221L162.309 151.54L142.841 136.742L93.5586 156.547L91.3337 168.452L103.348 185.475L174.88 162.221Z"/><path fill="#fff" stroke="#36B37E" stroke-miterlimit="10" stroke-width="1.358" d="M149.627 170.343L186.005 158.549L165.09 211.065L135.054 212.956L149.627 170.343Z"/><path fill="#fff" stroke="#36B37E" stroke-miterlimit="10" stroke-width="1.358" d="M110.579 182.915L103.348 185.474L100.011 232.984L103.348 242.997L135.054 212.956L149.627 170.343L110.579 182.915Z"/><path fill="#C5E9DA" stroke="#36B37E" stroke-miterlimit="10" stroke-width="1.358" d="M207.92 151.54L270.775 185.475L110.579 182.916L207.92 151.54Z"/><path fill="#fff" stroke="#36B37E" stroke-miterlimit="10" stroke-width="1.358" d="M103.348 185.475V177.687L52.9535 108.37L46.2787 118.94L94.4486 237.435L100.011 232.984L103.348 185.475Z"/><path fill="#fff" stroke="#36B37E" stroke-miterlimit="10" stroke-width="1.358" d="M52.9534 108.369L46.2786 118.939L23.8067 139.857L41.6062 103.919L52.9534 108.369Z"/><path fill="#172B4D" d="M173.1 190.816L110.579 182.916L175.881 184.029L173.1 190.816Z"/><path fill="#172B4D" d="M117.365 180.802L95.5608 162.666L94.6709 165.781L103.348 177.686V185.475L117.365 180.802Z"/><path fill="#C5E9DA" stroke="#36B37E" stroke-miterlimit="10" stroke-width="1.358" d="M89.7761 226.085L84.6588 232.427L77.9839 226.085L43.1636 121.944L46.2786 118.939L89.7761 226.085Z"/></g><defs><clipPath id="clip0_34_2544"><rect width="273" height="245" fill="#fff" transform="matrix(-1 0 0 1 273 0)"/></clipPath></defs></svg>